<svg width="1200" height="800" viewBox="0 0 1200 800" xmlns="http://www.w3.org/2000/svg">
  <!-- Background gradient -->
  <defs>
    <linearGradient id="skyGradient" x1="0%" y1="0%" x2="0%" y2="100%">
      <stop offset="0%" style="stop-color:#0a1a2a;stop-opacity:1" />
      <stop offset="50%" style="stop-color:#1a2a3a;stop-opacity:1" />
      <stop offset="100%" style="stop-color:#22302F;stop-opacity:1" />
    </linearGradient>
  </defs>
  
  <!-- Sky background -->
  <rect width="1200" height="800" fill="url(#skyGradient)"/>
  
  <!-- Stars at the top -->
  <g id="stars">
    <!-- Small stars -->
    <circle cx="150" cy="80" r="1" fill="#ffffff" opacity="0.8"/>
    <circle cx="280" cy="60" r="1.5" fill="#ffffff" opacity="0.9"/>
    <circle cx="420" cy="90" r="1" fill="#ffffff" opacity="0.7"/>
    <circle cx="550" cy="70" r="1.2" fill="#ffffff" opacity="0.8"/>
    <circle cx="680" cy="85" r="1" fill="#ffffff" opacity="0.6"/>
    <circle cx="820" cy="65" r="1.3" fill="#ffffff" opacity="0.9"/>
    <circle cx="950" cy="95" r="1" fill="#ffffff" opacity="0.7"/>
    <circle cx="1080" cy="75" r="1.4" fill="#ffffff" opacity="0.8"/>
    
    <!-- Medium stars -->
    <circle cx="200" cy="120" r="2" fill="#ffffff" opacity="0.9"/>
    <circle cx="350" cy="110" r="1.8" fill="#ffffff" opacity="0.8"/>
    <circle cx="500" cy="130" r="2.2" fill="#ffffff" opacity="0.9"/>
    <circle cx="650" cy="115" r="1.9" fill="#ffffff" opacity="0.7"/>
    <circle cx="800" cy="125" r="2.1" fill="#ffffff" opacity="0.8"/>
    <circle cx="950" cy="135" r="1.7" fill="#ffffff" opacity="0.9"/>
    
    <!-- Large stars -->
    <circle cx="300" cy="150" r="3" fill="#ffffff" opacity="1"/>
    <circle cx="600" cy="140" r="2.8" fill="#ffffff" opacity="0.95"/>
    <circle cx="900" cy="155" r="3.2" fill="#ffffff" opacity="1"/>
  </g>
  
  <!-- Comet at the top -->
  <g id="comet">
    <!-- Comet tail -->
    <path d="M 1000 50 Q 950 80 900 110 Q 850 140 800 170" 
          stroke="#4a90e2" stroke-width="3" fill="none" opacity="0.7"/>
    <path d="M 1000 50 Q 945 85 890 120 Q 835 155 780 185" 
          stroke="#7bb3f0" stroke-width="2" fill="none" opacity="0.5"/>
    <path d="M 1000 50 Q 940 90 880 130 Q 820 170 760 200" 
          stroke="#a8d1ff" stroke-width="1" fill="none" opacity="0.3"/>
    
    <!-- Comet head -->
    <circle cx="1000" cy="50" r="4" fill="#ffffff"/>
    <circle cx="1000" cy="50" r="6" fill="#4a90e2" opacity="0.3"/>
  </g>
  
  <!-- Mountains in the middle -->
  <g id="mountains">
    <!-- Cat mountain 1 (left) -->
    <path d="M 0 600 L 200 400 L 300 500 L 400 350 L 500 450 L 600 300 L 700 400 L 800 250 L 900 350 L 1000 200 L 1100 300 L 1200 250 L 1200 800 L 0 800 Z" 
          fill="#1a2a3a"/>
    
    <!-- Cat mountain 2 (center) -->
    <path d="M 100 650 L 300 450 L 400 550 L 500 400 L 600 500 L 700 350 L 800 450 L 900 300 L 1000 400 L 1100 250 L 1200 350 L 1200 800 L 100 800 Z" 
          fill="#0f1f2f"/>
    
    <!-- Cat mountain 3 (right) -->
    <path d="M 200 700 L 400 500 L 500 600 L 600 450 L 700 550 L 800 400 L 900 500 L 1000 350 L 1100 450 L 1200 300 L 1200 800 L 200 800 Z" 
          fill="#1a2a3a"/>
    
    <!-- Mountain silhouettes with cat-like features -->
    <path d="M 150 550 L 200 500 L 250 520 L 300 480 L 350 500 L 400 460 L 450 480 L 500 440 L 550 460 L 600 420 L 650 440 L 700 400 L 750 420 L 800 380 L 850 400 L 900 360 L 950 380 L 1000 340 L 1050 360 L 1100 320 L 1150 340 L 1200 300 L 1200 800 L 150 800 Z" 
          fill="#0a1a2a"/>
  </g>
  
  <!-- Lighthouse in the middle -->
  <g id="lighthouse">
    <!-- Lighthouse base -->
    <rect x="580" y="500" width="40" height="120" fill="#2a3a4a"/>
    
    <!-- Lighthouse tower -->
    <rect x="590" y="450" width="20" height="50" fill="#3a4a5a"/>
    
    <!-- Lighthouse top -->
    <circle cx="600" cy="440" r="15" fill="#4a5a6a"/>
    
    <!-- Lighthouse light -->
    <circle cx="600" cy="440" r="8" fill="#ffd700"/>
    <circle cx="600" cy="440" r="12" fill="#ffd700" opacity="0.3"/>
    
    <!-- Light beam -->
    <path d="M 600 440 L 550 380 L 650 380 Z" fill="#ffd700" opacity="0.2"/>
  </g>
  
  <!-- Sailboat in the middle -->
  <g id="sailboat">
    <!-- Boat hull -->
    <path d="M 650 650 L 750 650 L 760 680 L 640 680 Z" fill="#3a4a5a"/>
    
    <!-- Sail -->
    <path d="M 700 650 L 700 580 L 730 620 L 700 650 Z" fill="#4a5a6a"/>
    
    <!-- Mast -->
    <rect x="698" y="580" width="4" height="70" fill="#2a3a4a"/>
    
    <!-- Flag -->
    <rect x="702" y="585" width="15" height="8" fill="#ff6b6b"/>
  </g>
  
  <!-- Water reflection -->
  <g id="water" opacity="0.3">
    <path d="M 0 700 L 1200 700 L 1200 800 L 0 800 Z" fill="#1a2a3a"/>
    
    <!-- Wave lines -->
    <path d="M 0 720 L 1200 720" stroke="#4a90e2" stroke-width="1" opacity="0.4"/>
    <path d="M 0 740 L 1200 740" stroke="#4a90e2" stroke-width="1" opacity="0.3"/>
    <path d="M 0 760 L 1200 760" stroke="#4a90e2" stroke-width="1" opacity="0.2"/>
    <path d="M 0 780 L 1200 780" stroke="#4a90e2" stroke-width="1" opacity="0.1"/>
  </g>
</svg> 